<svg width="24" height="24" viewBox="0 0 24 24" fill="none" xmlns="http://www.w3.org/2000/svg">
<path d="M19.9607 2.42382H17.6512V1.26907C17.6512 0.962811 17.5296 0.669095 17.313 0.452537C17.0964 0.23598 16.8027 0.114319 16.4965 0.114319C16.1902 0.114319 15.8965 0.23598 15.6799 0.452537C15.4634 0.669095 15.3417 0.962811 15.3417 1.26907V2.42382H8.41321V1.26907C8.41321 0.962811 8.29155 0.669095 8.07499 0.452537C7.85843 0.23598 7.56472 0.114319 7.25846 0.114319C6.9522 0.114319 6.65849 0.23598 6.44193 0.452537C6.22537 0.669095 6.10371 0.962811 6.10371 1.26907V2.42382H3.79421C2.87543 2.42382 1.99429 2.7888 1.34461 3.43848C0.694939 4.08815 0.329956 4.9693 0.329956 5.88807V19.7451C0.329956 20.6639 0.694939 21.545 1.34461 22.1947C1.99429 22.8444 2.87543 23.2093 3.79421 23.2093H19.9607C20.8795 23.2093 21.7606 22.8444 22.4103 22.1947C23.06 21.545 23.425 20.6639 23.425 19.7451V5.88807C23.425 4.9693 23.06 4.08815 22.4103 3.43848C21.7606 2.7888 20.8795 2.42382 19.9607 2.42382ZM21.1155 19.7451C21.1155 20.0513 20.9938 20.3451 20.7773 20.5616C20.5607 20.7782 20.267 20.8998 19.9607 20.8998H3.79421C3.48795 20.8998 3.19423 20.7782 2.97768 20.5616C2.76112 20.3451 2.63946 20.0513 2.63946 19.7451V11.6618H21.1155V19.7451ZM21.1155 9.35232H2.63946V5.88807C2.63946 5.58181 2.76112 5.2881 2.97768 5.07154C3.19423 4.85498 3.48795 4.73332 3.79421 4.73332H6.10371V5.88807C6.10371 6.19433 6.22537 6.48805 6.44193 6.7046C6.65849 6.92116 6.9522 7.04282 7.25846 7.04282C7.56472 7.04282 7.85843 6.92116 8.07499 6.7046C8.29155 6.48805 8.41321 6.19433 8.41321 5.88807V4.73332H15.3417V5.88807C15.3417 6.19433 15.4634 6.48805 15.6799 6.7046C15.8965 6.92116 16.1902 7.04282 16.4965 7.04282C16.8027 7.04282 17.0964 6.92116 17.313 6.7046C17.5296 6.48805 17.6512 6.19433 17.6512 5.88807V4.73332H19.9607C20.267 4.73332 20.5607 4.85498 20.7773 5.07154C20.9938 5.2881 21.1155 5.58181 21.1155 5.88807V9.35232Z" fill="#FDB557"/>
</svg>
