<svg width="24" height="25" viewBox="0 0 24 25" fill="none" xmlns="http://www.w3.org/2000/svg">
<rect y="0.494385" width="24" height="24" rx="4" fill="#8692A6" fill-opacity="0.1"/>
<path fill-rule="evenodd" clip-rule="evenodd" d="M12.0007 19.0008C12.734 19.0008 13.334 18.4008 13.334 17.6674H10.6674C10.6674 18.4008 11.2607 19.0008 12.0007 19.0008ZM16.0005 15.0002V11.6669C16.0005 9.62024 14.9072 7.90691 13.0005 7.45358V7.00024C13.0005 6.44691 12.5538 6.00024 12.0005 6.00024C11.4472 6.00024 11.0005 6.44691 11.0005 7.00024V7.45358C9.08718 7.90691 8.00051 9.61358 8.00051 11.6669V15.0002L6.66718 16.3336V17.0002H17.3338V16.3336L16.0005 15.0002Z" fill="#1565D8"/>
<path fill-rule="evenodd" clip-rule="evenodd" d="M16.6667 12C18.1394 12 19.3333 10.8061 19.3333 9.33329C19.3333 7.86053 18.1394 6.66663 16.6667 6.66663C15.1939 6.66663 14 7.86053 14 9.33329C14 10.8061 15.1939 12 16.6667 12Z" fill="#FF8080" stroke="white" stroke-width="1.2"/>
</svg>
