<svg width="17" height="22" viewBox="0 0 17 22" fill="none" xmlns="http://www.w3.org/2000/svg">
<path d="M16.6997 6.25845L11.656 1.2147C11.5154 1.07407 11.3255 0.994385 11.1263 0.994385H1.17004C0.7552 0.994385 0.420044 1.32954 0.420044 1.74438V21.2444C0.420044 21.6592 0.7552 21.9944 1.17004 21.9944H16.17C16.5849 21.9944 16.92 21.6592 16.92 21.2444V6.79048C16.92 6.59126 16.8404 6.39907 16.6997 6.25845ZM15.1904 7.13501H10.7794V2.72407L15.1904 7.13501ZM15.2325 20.3069H2.10754V2.68188H9.18567V7.74438C9.18567 8.00546 9.28938 8.25584 9.47399 8.44044C9.65859 8.62505 9.90897 8.72876 10.17 8.72876H15.2325V20.3069ZM8.48254 13.9788H4.17004C4.06692 13.9788 3.98254 14.0631 3.98254 14.1663V15.2913C3.98254 15.3944 4.06692 15.4788 4.17004 15.4788H8.48254C8.58567 15.4788 8.67004 15.3944 8.67004 15.2913V14.1663C8.67004 14.0631 8.58567 13.9788 8.48254 13.9788ZM3.98254 10.9788V12.1038C3.98254 12.2069 4.06692 12.2913 4.17004 12.2913H13.17C13.2732 12.2913 13.3575 12.2069 13.3575 12.1038V10.9788C13.3575 10.8756 13.2732 10.7913 13.17 10.7913H4.17004C4.06692 10.7913 3.98254 10.8756 3.98254 10.9788Z" fill="#45DB91"/>
</svg>
