<svg width="18" height="7" viewBox="0 0 18 7" fill="none" xmlns="http://www.w3.org/2000/svg">
<path d="M15.3 0.800049H14.4V3.50005C14.4 3.73874 14.3052 3.96766 14.1364 4.13644C13.9676 4.30523 13.7387 4.40005 13.5 4.40005C13.2613 4.40005 13.0324 4.30523 12.8636 4.13644C12.6948 3.96766 12.6 3.73874 12.6 3.50005V0.800049H5.4V3.50005C5.4 3.73874 5.30518 3.96766 5.1364 4.13644C4.96761 4.30523 4.73869 4.40005 4.5 4.40005C4.2613 4.40005 4.03239 4.30523 3.8636 4.13644C3.69482 3.96766 3.6 3.73874 3.6 3.50005V0.800049H2.7C1.98392 0.800049 1.29716 1.08451 0.790812 1.59086C0.284464 2.09721 0 2.78396 0 3.50005V6.20005H18V3.50005C18 2.78396 17.7155 2.09721 17.2092 1.59086C16.7028 1.08451 16.0161 0.800049 15.3 0.800049Z" fill="white"/>
</svg>
