<svg width="40" height="41" viewBox="0 0 40 41" fill="none" xmlns="http://www.w3.org/2000/svg">
<path d="M0 11.5097C0 7.69511 0 5.78779 0.730584 4.32566C1.40116 2.98363 2.48925 1.89554 3.83128 1.22497C5.29341 0.494385 7.20073 0.494385 11.0154 0.494385H28.9846C32.7993 0.494385 34.7066 0.494385 36.1687 1.22497C37.5107 1.89554 38.5988 2.98363 39.2694 4.32566C40 5.78779 40 7.69511 40 11.5097V29.479C40 33.2937 40 35.201 39.2694 36.6631C38.5988 38.0051 37.5107 39.0932 36.1687 39.7638C34.7066 40.4944 32.7993 40.4944 28.9846 40.4944H11.0154C7.20072 40.4944 5.29341 40.4944 3.83128 39.7638C2.48925 39.0932 1.40116 38.0051 0.730584 36.6631C0 35.201 0 33.2937 0 29.479V11.5097Z" fill="#00CFDE" fill-opacity="0.1"/>
</svg>
