<svg width="18" height="18" viewBox="0 0 18 18" fill="none" xmlns="http://www.w3.org/2000/svg">
<path d="M17.2247 10.9725L15.5702 9.67876C15.5912 9.47925 15.6092 9.24602 15.6092 8.99926C15.6092 8.7525 15.5919 8.51927 15.5702 8.31976L17.2262 7.02527C17.5337 6.78227 17.6177 6.35101 17.4219 5.99179L15.7014 3.015C15.5177 2.67901 15.1149 2.5065 14.7062 2.65725L12.7539 3.44099C12.3797 3.17099 11.9874 2.943 11.5817 2.76075L11.2847 0.690012C11.2359 0.297 10.8939 0 10.4897 0H7.03969C6.63543 0 6.2942 0.297 6.24618 0.684L5.94844 2.76226C5.55543 2.93927 5.1692 3.16427 4.77844 3.4425L2.82094 2.65651C2.45416 2.51476 2.01541 2.67374 1.83316 3.00825L0.11043 5.98876C-0.092808 6.33227 -0.00881973 6.77851 0.305442 7.02752L1.95993 8.32127C1.93367 8.57401 1.92094 8.79377 1.92094 9.00004C1.92094 9.2063 1.9337 9.42602 1.95993 9.67954L0.30393 10.974C-0.00358144 11.2178 -0.0868314 11.649 0.108919 12.0075L1.82943 14.9843C2.01319 15.3195 2.41218 15.4935 2.82467 15.342L4.77693 14.5583C5.15043 14.8275 5.54267 15.0555 5.94844 15.2385L6.24544 17.3085C6.29417 17.703 6.63543 18 7.04043 18H10.4904C10.8947 18 11.2367 17.703 11.2847 17.316L11.5824 15.2385C11.9754 15.0608 12.3609 14.8365 12.7524 14.5575L14.7099 15.3435C14.8044 15.3802 14.9027 15.399 15.0039 15.399C15.2949 15.399 15.5627 15.24 15.6977 14.9925L17.4257 12C17.6177 11.649 17.5337 11.2178 17.2247 10.9725ZM8.76467 12C7.11018 12 5.76468 10.6545 5.76468 9C5.76468 7.34551 7.11018 6.00001 8.76467 6.00001C10.4192 6.00001 11.7647 7.34551 11.7647 9C11.7647 10.6545 10.4192 12 8.76467 12Z" fill="white"/>
</svg>
